<svg xmlns="http://www.w3.org/2000/svg" fill-rule="evenodd" clip-rule="evenodd" image-rendering="optimizeQuality" shape-rendering="geometricPrecision" text-rendering="geometricPrecision" viewBox="0 0 420 420"><path fill="#af5200" d="M268.5 62.5c.302 2.56-.032 4.893-1 7 .183-2.436-.484-4.603-2-6.5a93.89 93.89 0 0 0-26-6 7774.68 7774.68 0 0 1-22-8c-8.258-1.153-16.258-.32-24 2.5a313.504 313.504 0 0 0-40 9.5c-1.491 2.621-2.158 5.454-2 8.5-.961-1.765-1.295-3.765-1-6 .703-2.216 2.036-4.049 4-5.5 37.165-14.294 74.165-13.961 111 1a14.696 14.696 0 0 1 3 3.5Z" opacity=".884"/><path fill="#e0884c" d="M267.5 69.5v2c-2.336 3.535-5.002 7.035-8 10.5-13.629 2.984-25.629 8.817-36 17.5a176.339 176.339 0 0 0 3.5-41 54.547 54.547 0 0 0-6.5-6c-7.135-3.748-14.468-3.914-22-.5-2.118 1.05-3.784 2.55-5 4.5-1.636 1.249-2.803 2.916-3.5 5 .28 9.99.28 19.99 0 30a470.869 470.869 0 0 0-23-10c-1.789.91-3.623 1.076-5.5.5-.603-2.071-1.936-3.238-4-3.5a58.602 58.602 0 0 1-4.5-8c-.896-2.525-.396-4.692 1.5-6.5 10.808-4.836 22.141-8.169 34-10 1.991-.374 3.658-1.207 5-2.5 7.742-2.82 15.742-3.653 24-2.5a7774.68 7774.68 0 0 0 22 8 93.89 93.89 0 0 1 26 6c1.516 1.897 2.183 4.064 2 6.5Z"/><path fill="#cb6c06" d="M220.5 52.5c-6.442 5.246-9.442 12.246-9 21-2.41-.42-4.243-1.754-5.5-4a51.923 51.923 0 0 0-4.5-15.5c-3.358.181-6.025 1.681-8 4.5v-2c1.216-1.95 2.882-3.45 5-4.5 7.532-3.414 14.865-3.248 22 .5Z"/><path fill="#a35201" d="M220.5 52.5a54.547 54.547 0 0 1 6.5 6 176.339 176.339 0 0 1-3.5 41 9.82 9.82 0 0 0-3 4 674.677 674.677 0 0 0 4.5-25c1.048-11.437-.785-11.937-5.5-1.5a102.124 102.124 0 0 0-9-2.5c-1.545.01-2.878.344-4 1a12.935 12.935 0 0 1-5-.5 1995.44 1995.44 0 0 0-5.5-8.5l-2 2a77.353 77.353 0 0 0 2 22c.738 3.61 1.905 6.943 3.5 10l2 8c.734 1.208 1.067 2.541 1 4-4.83-8.622-7.83-17.955-9-28-2.153-8.767-2.153-17.433 0-26 1.975-2.819 4.642-4.319 8-4.5a51.923 51.923 0 0 1 4.5 15.5c1.257 2.246 3.09 3.58 5.5 4-.442-8.754 2.558-15.754 9-21Z"/><path fill="#ac5602" d="M149.5 68.5c-1.214 2.63-1.214 5.296 0 8-6.15-1.51-8.15.824-6 7-1.705-3.705-4.371-6.371-8-8a225.769 225.769 0 0 0 6 22l-3 2c.71-5.58-1.123-9.913-5.5-13-.61-3.428-2.443-5.762-5.5-7 1.216-1.95 2.882-3.45 5-4.5a175.507 175.507 0 0 1 17-6.5Z"/><path fill="#7d3800" d="M206.5 75.5c-7.854 6.57-10.187 14.904-7 25-1.595-3.057-2.762-6.39-3.5-10a77.353 77.353 0 0 1-2-22l2-2a1995.44 1995.44 0 0 1 5.5 8.5c1.634.493 3.301.66 5 .5Z"/><path fill="#1f1d1d" d="M206.5 75.5c6.334-.848 10.501 1.819 12.5 8a20.702 20.702 0 0 1 1.5 7l-2 14c-2.044-.531-3.711-1.698-5-3.5-7.075-2.056-11.075.444-12 7.5l-2-8c-3.187-10.096-.854-18.43 7-25Z"/><path fill="#833c00" d="m268.5 62.5 2 6v6a345.722 345.722 0 0 1-13 21c-.667 0-1-.333-1-1a16.336 16.336 0 0 0 2-5c4.019-5.372 7.019-11.372 9-18v-2c.968-2.107 1.302-4.44 1-7Z"/><path fill="#a95502" d="M270.5 68.5c7.214 2.394 13.881 5.728 20 10-.996-.086-1.829.248-2.5 1a342.77 342.77 0 0 1-6.5 20c-.992.172-1.658-.162-2-1-1.012-5.047.154-9.713 3.5-14 .497-2.31.663-4.643.5-7-2.222-.322-4.056.345-5.5 2a106.41 106.41 0 0 1-7.5 12 31.096 31.096 0 0 1 6-12.5c-1.105-2.653-3.105-4.153-6-4.5v-6Z"/><path fill="#692e01" d="M143.5 83.5a398.9 398.9 0 0 0 21 32 484.318 484.318 0 0 0 13.5 26c.789 2.212.622 4.212-.5 6-1.109-6.556-3.609-12.556-7.5-18l-20-30c-2.361-2.942-5.194-3.609-8.5-2a225.769 225.769 0 0 1-6-22c3.629 1.629 6.295 4.295 8 8Z"/><path fill="#c46912" d="M193.5 51.5c-1.342 1.293-3.009 2.126-5 2.5-11.859 1.831-23.192 5.164-34 10-1.896 1.808-2.396 3.975-1.5 6.5a58.602 58.602 0 0 0 4.5 8 50.46 50.46 0 0 0 8 16v3c-2.971-3.254-5.471-6.92-7.5-11a75.127 75.127 0 0 1-6.5-17c-.158-3.046.509-5.879 2-8.5a313.504 313.504 0 0 1 40-9.5Z"/><path fill="#823a01" d="M220.5 103.5c-.16 1.653-.826 2.986-2 4v-3l2-14a20.702 20.702 0 0 0-1.5-7c-1.999-6.181-6.166-8.848-12.5-8 1.122-.656 2.455-.99 4-1 3.148.727 6.148 1.56 9 2.5 4.715-10.437 6.548-9.937 5.5 1.5a674.677 674.677 0 0 1-4.5 25Z"/><path fill="#dd7a1e" d="M127.5 79.5c3.057 1.238 4.89 3.572 5.5 7 4.377 3.087 6.21 7.42 5.5 13-1 .333-1.667 1-2 2-2.446-5.296-6.279-9.63-11.5-13-1.073-3.6-.24-6.6 2.5-9Z"/><path fill="#883f00" d="M150.5 63.5c-.295 2.235.039 4.235 1 6a75.127 75.127 0 0 0 6.5 17c2.029 4.08 4.529 7.746 7.5 11v2h-1a416.486 416.486 0 0 1-15-23c-1.214-2.704-1.214-5.37 0-8-.284-1.915.049-3.581 1-5Z"/><path fill="#c77026" d="M270.5 74.5c2.895.347 4.895 1.847 6 4.5a31.096 31.096 0 0 0-6 12.5 62.733 62.733 0 0 1-6 9 20.807 20.807 0 0 0-2-6c-1.49 1.876-3.157 2.543-5 2v-1a345.722 345.722 0 0 0 13-21Z"/><path fill="#e07f32" d="M193.5 56.5v2c-2.153 8.567-2.153 17.233 0 26 1.17 10.045 4.17 19.378 9 28 1.174 1.014 1.84 2.347 2 4-4.004-1.663-6.337-4.663-7-9-2.516-.255-4.85-1.089-7-2.5l-9.5-7.5c.263 1.45.096 2.784-.5 4a99.18 99.18 0 0 0-15-7 50.46 50.46 0 0 1-8-16c2.064.262 3.397 1.429 4 3.5 1.877.576 3.711.41 5.5-.5a470.869 470.869 0 0 1 23 10c.28-10.01.28-20.01 0-30 .697-2.084 1.864-3.751 3.5-5Z"/><path fill="#de7d29" d="M290.5 78.5c2.609.943 4.609 2.61 6 5-.665 1.87-1.331 3.87-2 6-5.733 1.404-8.399 5.07-8 11l-3 2-2-3a342.77 342.77 0 0 0 6.5-20c.671-.752 1.504-1.086 2.5-1Z"/><path fill="#df7e2d" d="M267.5 71.5c-1.981 6.628-4.981 12.628-9 18-2.824 2.965-6.157 5.465-10 7.5-7.296 1.643-13.296 5.31-18 11a81.709 81.709 0 0 1-13 8c-1.537 1.11-2.203 2.61-2 4.5a32.749 32.749 0 0 1-8 1.5c-2.177-1.186-3.177-3.019-3-5.5 1.682 3.949 4.348 4.783 8 2.5 2.678-3.574 4.678-7.407 6-11.5 1.174-1.014 1.84-2.347 2-4a9.82 9.82 0 0 1 3-4c10.371-8.683 22.371-14.516 36-17.5 2.998-3.465 5.664-6.965 8-10.5Z"/><path fill="#0f0b09" d="M279.5 98.5c.342.838 1.008 1.172 2 1l2 3c2.556 3.168 3.556 6.834 3 11-2.823-3.318-6.323-5.652-10.5-7-13.153 11.338-23.653 24.671-31.5 40-.825.886-1.825 1.219-3 1 .678-5.369 2.512-10.369 5.5-15a868.914 868.914 0 0 0 22-33c3.25-3.387 6.75-3.72 10.5-1Z"/><path fill="#9f4900" d="M118.5 88.5a9366.19 9366.19 0 0 1-8 14c-.617.111-1.117.444-1.5 1a109.048 109.048 0 0 1-4 14 28.214 28.214 0 0 0 .5 12l-2-1c-2.227-2.309-3.227-5.142-3-8.5 2.434-12.586 8.434-23.086 18-31.5Z"/><path fill="#ca6e16" d="M149.5 76.5a416.486 416.486 0 0 0 15 23 701.521 701.521 0 0 1 4 7c-1.788-.285-3.455.048-5 1 .226 2.724.56 5.391 1 8a398.9 398.9 0 0 1-21-32c-2.15-6.176-.15-8.51 6-7Z"/><path fill="#df7b1e" d="M258.5 89.5a16.336 16.336 0 0 1-2 5c-9.943 14.458-21.61 27.625-35 39.5-6.651 4.999-13.651 5.666-21 2a258.651 258.651 0 0 1-35-36.5v-5a99.18 99.18 0 0 1 15 7c.596-1.216.763-2.55.5-4l9.5 7.5c2.15 1.411 4.484 2.245 7 2.5.663 4.337 2.996 7.337 7 9-.177 2.481.823 4.314 3 5.5a32.749 32.749 0 0 0 8-1.5c-.203-1.89.463-3.39 2-4.5a81.709 81.709 0 0 0 13-8c4.704-5.69 10.704-9.357 18-11 3.843-2.035 7.176-4.535 10-7.5Z"/><path fill="#151312" d="M177.5 147.5c-.876.131-1.543-.202-2-1a131.904 131.904 0 0 1-6.5-14 36382.759 36382.759 0 0 0-19.5-20.5c-1.244-.456-2.077.044-2.5 1.5-.264 5.726-1.764 11.059-4.5 16-7.32-4.976-10.653-11.976-10-21a36.16 36.16 0 0 1 4-7c.333-1 1-1.667 2-2l3-2c3.306-1.609 6.139-.942 8.5 2l20 30c3.891 5.444 6.391 11.444 7.5 18Z"/><path fill="#a14b00" d="M300.5 88.5c9.85 8.025 15.85 18.359 18 31-.031 3.426-1.031 6.426-3 9l-2 1a28.214 28.214 0 0 0 .5-12 109.048 109.048 0 0 1-4-14c-.383-.556-.883-.889-1.5-1a9366.19 9366.19 0 0 1-8-14Z"/><path fill="#d88246" d="M127.5 79.5c-2.74 2.4-3.573 5.4-2.5 9 5.221 3.37 9.054 7.704 11.5 13a36.16 36.16 0 0 0-4 7c-2.096-1.104-3.096-.27-3 2.5a347.38 347.38 0 0 0 3.5 12.5 77.742 77.742 0 0 0 11 10c1.368 1.994 1.868 3.994 1.5 6 9.415 5.138 19.415 8.472 30 10-3.14 1.141-6.473 1.308-10 .5-15.712-4.856-30.045-12.356-43-22.5a50.197 50.197 0 0 1-12.5-14 27.356 27.356 0 0 1 .5-11 9366.19 9366.19 0 0 0 8-14c2.022-4.022 5.022-7.022 9-9Z"/><path fill="#682e01" d="M279.5 98.5c-3.75-2.72-7.25-2.387-10.5 1a868.914 868.914 0 0 1-22 33c-2.988 4.631-4.822 9.631-5.5 15-1.134-2.466-1.301-5.133-.5-8a292.449 292.449 0 0 1 23.5-39 62.733 62.733 0 0 0 6-9 106.41 106.41 0 0 0 7.5-12c1.444-1.655 3.278-2.322 5.5-2a24.935 24.935 0 0 1-.5 7c-3.346 4.287-4.512 8.953-3.5 14Z"/><path fill="#db854a" d="M296.5 83.5a796.928 796.928 0 0 0 4 5 9366.19 9366.19 0 0 0 8 14c2.731 7.924.731 14.258-6 19-14.727 12.865-31.394 22.365-50 28.5a25.238 25.238 0 0 1-10 0c-.556-.383-.889-.883-1-1.5h2c11.033-.453 21.366-3.786 31-10 3.047-.79 4.714-2.79 5-6 4.865-2.355 9.032-5.689 12.5-10a20.093 20.093 0 0 0 1.5-6h-4c-.03-5.629-1.03-10.963-3-16-.399-5.93 2.267-9.596 8-11 .669-2.13 1.335-4.13 2-6Z"/><path fill="#ba6722" d="M286.5 100.5c1.97 5.037 2.97 10.371 3 16h4a20.093 20.093 0 0 1-1.5 6c-3.468 4.311-7.635 7.645-12.5 10-.286 3.21-1.953 5.21-5 6a43.836 43.836 0 0 0-1-2c1.45-1.35 2.117-3.016 2-5a137.09 137.09 0 0 0 9-10.5 31.625 31.625 0 0 0 2-7.5c.556-4.166-.444-7.832-3-11l3-2Z"/><path fill="#b15b00" d="M256.5 94.5c0 .667.333 1 1 1v1a325.784 325.784 0 0 1-29 34.5l-13 9a49.974 49.974 0 0 1-15-.5 21.614 21.614 0 0 0-5-4 355.759 355.759 0 0 0-14.5-14 100.535 100.535 0 0 0-12.5-15 701.521 701.521 0 0 0-4-7h1a258.651 258.651 0 0 0 35 36.5c7.349 3.666 14.349 2.999 21-2 13.39-11.875 25.057-25.042 35-39.5Z"/><path fill="#2d2a28" d="M218.5 104.5v3c-1.322 4.093-3.322 7.926-6 11.5-3.652 2.283-6.318 1.449-8-2.5-.16-1.653-.826-2.986-2-4 .067-1.459-.266-2.792-1-4 .925-7.056 4.925-9.556 12-7.5 1.289 1.802 2.956 2.969 5 3.5Z"/><path fill="#c16600" d="M110.5 102.5a27.356 27.356 0 0 0-.5 11 50.197 50.197 0 0 0 12.5 14 4.934 4.934 0 0 0 .5 3c3.092 1.423 5.092 3.757 6 7a90.68 90.68 0 0 0 10 8 124.259 124.259 0 0 0 5.5 12.5l13 7a190.529 190.529 0 0 1 44 15c14.933 1.47 29.267-.864 43-7a385.603 385.603 0 0 0 44-23 74.325 74.325 0 0 1 10.5-10.5 304.77 304.77 0 0 1 2-13c2.473-1.24 2.973-2.907 1.5-5 6.731-4.742 8.731-11.076 6-19 .617.111 1.117.444 1.5 1a109.048 109.048 0 0 0 4 14 28.214 28.214 0 0 1-.5 12c-12.939 14.642-28.273 26.142-46 34.5-16.558 9.446-34.224 15.78-53 19-5 .667-10 .667-15 0-24.957-6.98-48.29-17.48-70-31.5-8.899-6.228-16.899-13.561-24-22a28.214 28.214 0 0 1-.5-12 109.048 109.048 0 0 0 4-14c.383-.556.883-.889 1.5-1Z"/><path fill="#201f1f" d="M177.5 147.5c-.342.838-1.008 1.172-2 1-12.502-3.859-23.502-10.192-33-19 2.736-4.941 4.236-10.274 4.5-16 .423-1.456 1.256-1.956 2.5-1.5 6.555 6.886 13.055 13.719 19.5 20.5a131.904 131.904 0 0 0 6.5 14c.457.798 1.124 1.131 2 1Z"/><path fill="#a75306" d="M132.5 108.5c-.653 9.024 2.68 16.024 10 21 9.498 8.808 20.498 15.141 33 19v1c-10.585-1.528-20.585-4.862-30-10 .368-2.006-.132-4.006-1.5-6a77.742 77.742 0 0 1-11-10 347.38 347.38 0 0 1-3.5-12.5c-.096-2.77.904-3.604 3-2.5Z"/><path fill="#1b1b1a" d="M286.5 113.5a31.625 31.625 0 0 1-2 7.5 137.09 137.09 0 0 1-9 10.5c-9.499 7.751-20.165 13.417-32 17h-2v-1c1.175.219 2.175-.114 3-1 7.847-15.329 18.347-28.662 31.5-40 4.177 1.348 7.677 3.682 10.5 7Z"/><path fill="#9a4d01" d="M105.5 132.5c-.356 3.064.477 5.731 2.5 8 .498 2.982.665 5.982.5 9h-1c-1.58-2.217-2.58-4.884-3-8-1.695.674-3.362 1.341-5 2a87.357 87.357 0 0 1 6-11Z"/><path fill="#623004" d="m103.5 128.5 2 1c7.101 8.439 15.101 15.772 24 22-1.898-.596-3.565-.596-5 0a34.325 34.325 0 0 0-8-8 1587.275 1587.275 0 0 0-8 6 40.914 40.914 0 0 0-.5-9c-2.023-2.269-2.856-4.936-2.5-8-1.1-1.105-1.767-2.438-2-4Z"/><path fill="#af5a05" d="M315.5 136.5a93.543 93.543 0 0 1 7 11c-2.292.256-4.459-.077-6.5-1-.236 1.619-1.069 2.619-2.5 3-.35-4.531.317-8.864 2-13Z"/><path fill="#0c0704" d="M124.5 151.5c-1.468 3.73-4.135 6.063-8 7a51.569 51.569 0 0 0-7 1c-4 .667-5.667-1-5-5 1.237-1.465 2.237-3.132 3-5h1c2.637-1.991 5.304-3.991 8-6a34.325 34.325 0 0 1 8 8ZM311.5 149.5c.763 1.868 1.763 3.535 3 5-.235 4.303-2.569 5.97-7 5a53.76 53.76 0 0 1-8-2c-.79-.901-1.79-1.568-3-2-.333-1-1-1.667-2-2a4.934 4.934 0 0 1 .5-3 45.825 45.825 0 0 1 7-7 95.759 95.759 0 0 1 9.5 6Z"/><path fill="#c8702a" d="M107.5 149.5c-.763 1.868-1.763 3.535-3 5-3.462-.982-7.129-1.315-11-1v-3c2.03-2.358 4.03-4.692 6-7 1.638-.659 3.305-1.326 5-2 .42 3.116 1.42 5.783 3 8Z"/><path fill="#d37209" d="M264.5 100.5a292.449 292.449 0 0 0-23.5 39c-.801 2.867-.634 5.534.5 8v1c.111.617.444 1.117 1 1.5 3.333.667 6.667.667 10 0 18.606-6.135 35.273-15.635 50-28.5 1.473 2.093.973 3.76-1.5 5a304.77 304.77 0 0 0-2 13 74.325 74.325 0 0 0-10.5 10.5 385.603 385.603 0 0 1-44 23c-13.733 6.136-28.067 8.47-43 7a190.529 190.529 0 0 0-44-15l-13-7a124.259 124.259 0 0 1-5.5-12.5 90.68 90.68 0 0 1-10-8c-.908-3.243-2.908-5.577-6-7a4.934 4.934 0 0 1-.5-3c12.955 10.144 27.288 17.644 43 22.5 3.527.808 6.86.641 10-.5v-1c.992.172 1.658-.162 2-1 1.122-1.788 1.289-3.788.5-6a484.318 484.318 0 0 1-13.5-26 95.648 95.648 0 0 1-1-8c1.545-.952 3.212-1.285 5-1 4.625 4.56 8.791 9.56 12.5 15a355.759 355.759 0 0 1 14.5 14 36.831 36.831 0 0 1-9.5-5 44.424 44.424 0 0 1-6 7 31.7 31.7 0 0 0 .5 12.5c-.285 1.89-1.285 3.223-3 4a37.933 37.933 0 0 0 5.5 8.5c5.525 4.862 11.025 9.696 16.5 14.5a39.081 39.081 0 0 0 16 1 2954.93 2954.93 0 0 0 29-24.5 4.457 4.457 0 0 0-1.5-2c-1.011.837-2.178 1.17-3.5 1a67.968 67.968 0 0 1 1-15.5 50.652 50.652 0 0 1-5-10.5 209.42 209.42 0 0 1-19 15c-5.77 1.841-11.103 1.174-16-2a49.974 49.974 0 0 0 15 .5l13-9a325.784 325.784 0 0 0 29-34.5c1.843.543 3.51-.124 5-2a20.807 20.807 0 0 1 2 6Z"/><path fill="#aa5303" d="M275.5 131.5c.117 1.984-.55 3.65-2 5 .363.683.696 1.35 1 2-9.634 6.214-19.967 9.547-31 10 11.835-3.583 22.501-9.249 32-17Z"/><path fill="#cf7f4b" d="M322.5 147.5c.214 1.644-.12 3.144-1 4.5a49.83 49.83 0 0 0-7 2.5c-1.237-1.465-2.237-3.132-3-5h2c1.431-.381 2.264-1.381 2.5-3 2.041.923 4.208 1.256 6.5 1Z"/><path fill="#a85101" d="M322.5 147.5c3.026 2.695 6.026 5.362 9 8-.543.06-.876.393-1 1 6.043 10.686 5.21 20.686-2.5 30-10.395-.562-20.895-1.729-31.5-3.5-6.658-.5-13.325-.666-20-.5-6.522.323-12.855-.01-19-1 14.67-.167 29.337 0 44 .5a94.255 94.255 0 0 1 16.5 2.5c7.753.887 12.253-2.446 13.5-10a33.82 33.82 0 0 0-3.5-12c-4.066-.964-8.233-1.297-12.5-1l-8-2c4.431.97 6.765-.697 7-5a49.83 49.83 0 0 1 7-2.5c.88-1.356 1.214-2.856 1-4.5Z"/><path fill="#a25504" d="M129.5 151.5c13.832 11.094 29.165 19.927 46 26.5l3 2.5a16.873 16.873 0 0 1-8 1c.111-.617.444-1.117 1-1.5-4.322-3.936-9.322-6.436-15-7.5-1.618-.951-2.951-2.284-4-4a497.082 497.082 0 0 0-27-13c-2.674 2.002-5.674 3.002-9 3 3.865-.937 6.532-3.27 8-7 1.435-.596 3.102-.596 5 0Z"/><path fill="#dc7817" d="M195.5 135.5a21.614 21.614 0 0 1 5 4h-5a16.873 16.873 0 0 1-1 8l-6 5c-.928 1.268-1.095 2.601-.5 4a203.44 203.44 0 0 0 20.5 21 9.201 9.201 0 0 0 4.5-2l10-14c2.012-4.456 1.512-8.623-1.5-12.5-.737-2.441-.737-4.775 0-7a12.93 12.93 0 0 0-5-.5 209.42 209.42 0 0 0 19-15 50.652 50.652 0 0 0 5 10.5 67.968 67.968 0 0 0-1 15.5c1.322.17 2.489-.163 3.5-1a4.457 4.457 0 0 1 1.5 2 2954.93 2954.93 0 0 1-29 24.5 39.081 39.081 0 0 1-16-1c-5.475-4.804-10.975-9.638-16.5-14.5a37.933 37.933 0 0 1-5.5-8.5c1.715-.777 2.715-2.11 3-4a31.7 31.7 0 0 1-.5-12.5 44.424 44.424 0 0 0 6-7 36.831 36.831 0 0 0 9.5 5Z"/><path fill="#e07d26" d="M200.5 139.5c4.897 3.174 10.23 3.841 16 2a12.93 12.93 0 0 1 5 .5c-.737 2.225-.737 4.559 0 7 3.012 3.877 3.512 8.044 1.5 12.5l-10 14a9.201 9.201 0 0 1-4.5 2 203.44 203.44 0 0 1-20.5-21c-.595-1.399-.428-2.732.5-4l6-5a16.873 16.873 0 0 0 1-8h5Z"/><path fill="#bf6504" d="M156.5 172.5c5.678 1.064 10.678 3.564 15 7.5-.556.383-.889.883-1 1.5h-1c-24.065.47-48.065-.03-72-1.5-4.84-2.003-7.174-5.669-7-11a18.32 18.32 0 0 1 4-7c5.247-.182 10.247-1.016 15-2.5a51.569 51.569 0 0 1 7-1c3.326.002 6.326-.998 9-3a497.082 497.082 0 0 1 27 13c1.049 1.716 2.382 3.049 4 4Z"/><path fill="#b35d00" d="M296.5 155.5c1.21.432 2.21 1.099 3 2-6.89-.074-13.224 1.759-19 5.5a381.936 381.936 0 0 1-22 13.5 7.248 7.248 0 0 1-2 2.5l2 1c18.333.667 36.667.667 55 0 6.28-1.284 10.28-4.95 12-11-.143-2.151-1.143-3.818-3-5a274.481 274.481 0 0 0-7-2.5c4.267-.297 8.434.036 12.5 1a33.82 33.82 0 0 1 3.5 12c-1.247 7.554-5.747 10.887-13.5 10a94.255 94.255 0 0 0-16.5-2.5c-14.663-.5-29.33-.667-44-.5h-9c3.781-4.068 8.448-6.901 14-8.5 2.762-4.373 6.762-6.706 12-7 6.13-5.897 13.464-9.397 22-10.5Z"/><path fill="#894601" d="M294.5 153.5c1 .333 1.667 1 2 2-8.536 1.103-15.87 4.603-22 10.5-5.238.294-9.238 2.627-12 7-5.552 1.599-10.219 4.432-14 8.5-1.478.262-2.811-.071-4-1a3.647 3.647 0 0 1 1-1.5c4.3-1.987 8.633-3.82 13-5.5-.219-1.175.114-2.175 1-3a169.465 169.465 0 0 0 26-15.5c2.851-1.289 5.851-1.789 9-1.5Z"/><path fill="#cb6d08" d="M299.5 157.5a53.76 53.76 0 0 0 8 2l8 2c2.24.764 4.573 1.598 7 2.5 1.857 1.182 2.857 2.849 3 5-1.72 6.05-5.72 9.716-12 11a756.122 756.122 0 0 1-55 0l-2-1a7.248 7.248 0 0 0 2-2.5 381.936 381.936 0 0 0 22-13.5c5.776-3.741 12.11-5.574 19-5.5Z"/><path fill="#d07008" d="M156.5 172.5a278.186 278.186 0 0 0 6 6 451.288 451.288 0 0 1-52 .5c-6.002-2.165-10.669-5.998-14-11.5 1.028-1.861 2.528-3.195 4.5-4l1 2c8.474-.744 16.474-3.078 24-7a660.14 660.14 0 0 0 26.5 12.5c1.066 2.012 2.4 2.512 4 1.5Z"/><path fill="#a75200" d="M93.5 150.5v3c3.871-.315 7.538.018 11 1-.667 4 1 5.667 5 5-4.753 1.484-9.753 2.318-15 2.5a18.32 18.32 0 0 0-4 7c-.174 5.331 2.16 8.997 7 11a890.422 890.422 0 0 0 72 1.5v1h-30a122.884 122.884 0 0 0-34 4.5c-6.076 1.182-12.076 1.682-18 1.5-2.258-2.177-3.758-4.843-4.5-8a172.044 172.044 0 0 1-1.5-12c1.259-7.909 5.259-13.909 12-18Z"/><path fill="#916347" d="M164.5 182.5h5c9.604-.783 18.937.384 28 3.5 11.243 1.324 22.243.324 33-3 18.65-1.002 36.983.998 55 6l11 5.5a252.772 252.772 0 0 1 3 18 22.755 22.755 0 0 0-4-5 102.806 102.806 0 0 0-13-11 11.988 11.988 0 0 0-6-1c-2.437-.386-4.437-1.553-6-3.5-13.238-1.907-25.571.26-37 6.5h-1c-.417-.624-1.084-.957-2-1-14.359 6.623-28.693 6.623-43 0-.607.124-.94.457-1 1h-1c-6.341-3.812-13.341-5.978-21-6.5a49.226 49.226 0 0 0-14 0c-2.904.133-5.238 1.3-7 3.5-1.101-1.098-2.434-1.265-4-.5a100.167 100.167 0 0 1-14 8 105.185 105.185 0 0 1-6 8.5 452.604 452.604 0 0 1 3-17c4.677-2.666 9.677-4.833 15-6.5a649.165 649.165 0 0 1 27-5.5Z"/><path fill="#633002" d="M315.5 128.5c-.011 1.517-.677 2.684-2 3.5a9.175 9.175 0 0 1 2 4.5c-1.683 4.136-2.35 8.469-2 13h-2a95.759 95.759 0 0 0-9.5-6 45.825 45.825 0 0 0-7 7 4.934 4.934 0 0 0-.5 3c-3.149-.289-6.149.211-9 1.5a169.465 169.465 0 0 1-26 15.5c-.886.825-1.219 1.825-1 3-4.367 1.68-8.7 3.513-13 5.5a3.647 3.647 0 0 0-1 1.5c1.189.929 2.522 1.262 4 1h9c6.145.99 12.478 1.323 19 1 3.125.979 6.458 1.313 10 1a748.583 748.583 0 0 0 17 3.5c8.762 4.72 18.095 7.053 28 7 2.292-2.116 4.292-4.282 6-6.5-4.936 17.267-16.27 27.6-34 31 .166-6.675 0-13.342-.5-20a38.675 38.675 0 0 0-6.5-4l-11-5.5c-18.017-5.002-36.35-7.002-55-6-10.757 3.324-21.757 4.324-33 3-9.063-3.116-18.396-4.283-28-3.5v-1h1c2.747.313 5.414-.02 8-1l-3-2.5c-16.835-6.573-32.168-15.406-46-26.5 21.71 14.02 45.043 24.52 70 31.5 5 .667 10 .667 15 0 18.776-3.22 36.442-9.554 53-19 17.727-8.358 33.061-19.858 46-34.5l2-1Z"/><path fill="#904700" d="M331.5 155.5c4.694 5.744 7.027 12.411 7 20-1.892 5.171-4.558 10.004-8 14.5-9.99.39-19.657-1.276-29-5a68.766 68.766 0 0 0-15-1.5c-3.542.313-6.875-.021-10-1 6.675-.166 13.342 0 20 .5 10.605 1.771 21.105 2.938 31.5 3.5 7.71-9.314 8.543-19.314 2.5-30 .124-.607.457-.94 1-1Z"/><path fill="#813f00" d="M81.5 168.5c.358 4.009.858 8.009 1.5 12 .742 3.157 2.242 5.823 4.5 8 5.924.182 11.924-.318 18-1.5a122.884 122.884 0 0 1 34-4.5 249.939 249.939 0 0 0-47 12c-3.897-.615-7.23-2.282-10-5-1.454-4.074-2.121-8.407-2-13 .002-2.855.336-5.522 1-8Z"/><path fill="#793b00" d="M338.5 175.5a54.968 54.968 0 0 1-1 12c-1.708 2.218-3.708 4.384-6 6.5-9.905.053-19.238-2.28-28-7a748.583 748.583 0 0 1-17-3.5c5.052-.05 10.052.45 15 1.5 9.343 3.724 19.01 5.39 29 5 3.442-4.496 6.108-9.329 8-14.5Z"/><path fill="#4d3a2e" d="M276.5 195.5c.233 1.562.9 2.895 2 4 .03.997-.47 1.664-1.5 2-14.301-3.58-28.801-3.58-43.5 0v-3c11.429-6.24 23.762-8.407 37-6.5 1.563 1.947 3.563 3.114 6 3.5Z"/><path fill="#602c01" d="M139.5 182.5h25a649.165 649.165 0 0 0-27 5.5c-5.323 1.667-10.323 3.834-15 6.5a38.675 38.675 0 0 0-6.5 4c-.5 6.658-.666 13.325-.5 20-12.199-2.682-22.032-9.015-29.5-19a25.642 25.642 0 0 1-3.5-10c2.77 2.718 6.103 4.385 10 5a249.939 249.939 0 0 1 47-12Z" opacity=".99"/><path fill="#765541" d="M296.5 194.5a38.675 38.675 0 0 1 6.5 4c.5 6.658.666 13.325.5 20-.134 1.792.199 3.458 1 5-.79 1.109-1.29 2.442-1.5 4a595.387 595.387 0 0 0-3.5-15 252.772 252.772 0 0 0-3-18Z"/><path fill="#503c31" d="M185.5 198.5c.131.876-.202 1.543-1 2a26.793 26.793 0 0 1-6.5-3c-4.538.344-8.872.344-13 0a511.591 511.591 0 0 0-22 3c-1.07-.028-1.903-.361-2.5-1a308.607 308.607 0 0 1 3-4c1.762-2.2 4.096-3.367 7-3.5a49.226 49.226 0 0 1 14 0c7.659.522 14.659 2.688 21 6.5Z"/><path fill="#5f4b40" d="M185.5 198.5h1v6a30.786 30.786 0 0 1-4.5 3c-10.872-3.622-22.039-5.122-33.5-4.5-2.739 1.026-5.072 2.526-7 4.5h-3v-6l2-2c.597.639 1.43.972 2.5 1a511.591 511.591 0 0 1 22-3c4.128.344 8.462.344 13 0a26.793 26.793 0 0 0 6.5 3c.798-.457 1.131-1.124 1-2ZM232.5 198.5h1v3c14.699-3.58 29.199-3.58 43.5 0 1.03-.336 1.53-1.003 1.5-2 1.663 1.938 2.329 4.272 2 7-2.138 1.308-4.138.975-6-1-4.269-2.591-8.936-3.591-14-3a117.735 117.735 0 0 0-24 5c-1.716-1.049-3.049-2.382-4-4v-5Z"/><path fill="#c9a088" d="M138.5 201.5v6h3c-1.384 1.301-2.884 1.301-4.5 0l-2 6a500.985 500.985 0 0 0 1.5 56h-8a2042.421 2042.421 0 0 0 1-66c1.992-2.173 4.492-3.506 7.5-4 1.03.336 1.53 1.003 1.5 2Z"/><path fill="#b28972" d="M232.5 198.5v5c-.656-.778-1.489-1.444-2.5-2-14.126 5.208-28.293 5.208-42.5 0 .237 1.291-.096 2.291-1 3v-6c.06-.543.393-.876 1-1 14.307 6.623 28.641 6.623 43 0 .916.043 1.583.376 2 1Z"/><path fill="#e2bba5" d="M260.5 202.5c5.064-.591 9.731.409 14 3 4.17 6.688 5.837 14.021 5 22h-3c-2.644-2.223-5.644-3.889-9-5h-2c-.763-.768-1.763-1.268-3-1.5a98.432 98.432 0 0 0-14-.5c-3.185.48-6.019-.186-8.5-2-.667-1.333-.667-2.667 0-4a107.994 107.994 0 0 1 13.5-10.5c2.536-.186 4.869-.686 7-1.5Z"/><path fill="#7a5945" d="M122.5 194.5a452.604 452.604 0 0 0-3 17 277.616 277.616 0 0 1-2.5 18 10.098 10.098 0 0 1-1.5-6v-5c-.166-6.675 0-13.342.5-20a38.675 38.675 0 0 1 6.5-4Z"/><path fill="#a2775d" d="M295.5 207.5a22.755 22.755 0 0 1 4 5 595.387 595.387 0 0 1 3.5 15c.21-1.558.71-2.891 1.5-4-.065.438.101.772.5 1 7.231-6.062 11.898-4.396 14 5 .808 3.527.641 6.86-.5 10v-6c-2.298.81-4.632 1.644-7 2.5-2.107 1.264-3.107 3.097-3 5.5-1 .333-1.667 1-2 2 .467-5.095 2.8-9.595 7-13.5-3.062-.741-6.062-.575-9 .5a45.487 45.487 0 0 0 0 18v2a154.689 154.689 0 0 0-2 19h-8c-.446-19.56.221-39.06 2-58.5a14.093 14.093 0 0 1-1-3.5Z"/><path fill="#7e6658" d="M248.5 220.5a98.432 98.432 0 0 1 14 .5c1.237.232 2.237.732 3 1.5a47.522 47.522 0 0 0-19 0l2-2ZM267.5 222.5c3.356 1.111 6.356 2.777 9 5 2.003 2.936 2.669 5.936 2 9a18.924 18.924 0 0 0-3-5c1.025-.397 1.192-1.063.5-2a89.868 89.868 0 0 1-8.5-7Z"/><path fill="#8d6d3d" d="M260.5 225.5c3.427 3.921 4.76 8.587 4 14a43.25 43.25 0 0 1-7 5c2.744-2.821 4.41-6.154 5-10-.186-4.033-2.186-6.866-6-8.5a8.43 8.43 0 0 1 4-.5Z"/><path fill="#110c07" d="M265.5 222.5h2a89.868 89.868 0 0 0 8.5 7c.692.937.525 1.603-.5 2-1.89-2.078-4.224-3.411-7-4-2.461-1.031-5.127-1.698-8-2a8.43 8.43 0 0 0-4 .5c3.814 1.634 5.814 4.467 6 8.5-.59 3.846-2.256 7.179-5 10-10.189 1.146-14.522-3.187-13-13 5.071 2.094 6.737.594 5-4.5-1.765-.64-3.432-.473-5 .5a18.478 18.478 0 0 0-6 4c-2 1.333-3.667 3-5 5-1.073-.751-1.24-1.751-.5-3a21.53 21.53 0 0 0 5-6c2.478-2.32 5.311-3.986 8.5-5a47.522 47.522 0 0 1 19 0Z"/><path fill="#ebeae8" d="m244.5 231.5-1-2 1-2c1.568-.973 3.235-1.14 5-.5 1.737 5.094.071 6.594-5 4.5Z"/><path fill="#a4795f" d="M143.5 195.5a308.607 308.607 0 0 0-3 4l-2 2c.03-.997-.47-1.664-1.5-2-3.008.494-5.508 1.827-7.5 4-3.504.292-5.171 2.292-5 6a950.25 950.25 0 0 1 1 60h-9c.163-6.562-.504-12.895-2-19-.211-3.682-1.544-6.682-4-9-1.352-4.851-4.519-7.851-9.5-9a32.462 32.462 0 0 0-.5 8c-1.61-6.181-.777-12.181 2.5-18a11.295 11.295 0 0 1 4-2 22.565 22.565 0 0 1 7 4c.383-.556.883-.889 1.5-1a10.098 10.098 0 0 0 1.5 6 277.616 277.616 0 0 0 2.5-18 105.185 105.185 0 0 0 6-8.5 100.167 100.167 0 0 0 14-8c1.566-.765 2.899-.598 4 .5Z"/><path fill="#c49c84" d="M306.5 243.5c-.296 1.903-.963 3.57-2 5a45.487 45.487 0 0 1 0-18c2.938-1.075 5.938-1.241 9-.5-4.2 3.905-6.533 8.405-7 13.5Z"/><path fill="#cca38c" d="M106.5 229.5c8.354-.881 11.021 2.786 8 11-3.42-3.195-6.086-6.861-8-11Z"/><path fill="#e4e3e3" d="M268.5 227.5c2.776.589 5.11 1.922 7 4a18.924 18.924 0 0 1 3 5v1a2968.346 2968.346 0 0 0-6 7 92.214 92.214 0 0 1-10 4c2.83-2.343 4.663-5.343 5.5-9 .308-4.238.475-8.238.5-12Z"/><path fill="#c39a82" d="M110.5 241.5c-5.144 2.272-7.81 6.272-8 12-1.395-4.091-2.062-8.424-2-13a32.462 32.462 0 0 1 .5-8c4.981 1.149 8.148 4.149 9.5 9Z"/><path fill="#b68e76" d="M129.5 203.5c.022 22.007-.311 44.007-1 66v1h-15a6545.225 6545.225 0 0 1-3.5-18c1.11 1.537 2.61 2.203 4.5 2v-4c1.496 6.105 2.163 12.438 2 19h9a950.25 950.25 0 0 0-1-60c-.171-3.708 1.496-5.708 5-6Z"/><path fill="#b88f77" d="M276.5 195.5a11.988 11.988 0 0 1 6 1 102.806 102.806 0 0 1 13 11 14.093 14.093 0 0 0 1 3.5 513.068 513.068 0 0 0-2 58.5h8c.29-6.516.957-12.85 2-19v4c1.89.203 3.39-.463 4.5-2a221.1 221.1 0 0 1-4 17 62.792 62.792 0 0 1-15.5 1c-1.068-.934-2.401-1.268-4-1 .722-19.997.889-39.997.5-60-.045-2.834-.879-5.334-2.5-7.5l-1-.5a112.33 112.33 0 0 1-2 5c.329-2.728-.337-5.062-2-7-1.1-1.105-1.767-2.438-2-4Z"/><path fill="#e3e2e2" d="M238.5 231.5c-1.096 8.815 2.238 15.148 10 19a38.31 38.31 0 0 1-13-4c-.342-.838-1.008-1.172-2-1-3.79-2.843-3.79-5.843 0-9 1.333-2 3-3.667 5-5Z"/><path fill="#9b7946" d="m243.5 229.5 1 2c-1.522 9.813 2.811 14.146 13 13a10.165 10.165 0 0 1-3 3h-4c-7.576-3.152-10.41-8.818-8.5-17 .383-.556.883-.889 1.5-1Z"/><path fill="#c69d86" d="M318.5 239.5c.22 4.6-.446 8.933-2 13-.382-5.375-3.049-9.042-8-11-.107-2.403.893-4.236 3-5.5 2.368-.856 4.702-1.69 7-2.5v6Z"/><path fill="#808378" d="M260.5 225.5c2.873.302 5.539.969 8 2a182.75 182.75 0 0 1-.5 12c-.837 3.657-2.67 6.657-5.5 9a33.691 33.691 0 0 1-9 2 10.165 10.165 0 0 1-3-3h4c2.357.163 4.69-.003 7-.5a72.357 72.357 0 0 0 3-7.5c.76-5.413-.573-10.079-4-14Z"/><path fill="#d3ab94" d="M289.5 270.5h-13c-3.253-11.111-1.92-21.778 4-32-.457-.798-1.124-1.131-2-1v-1c.669-3.064.003-6.064-2-9h3c.837-7.979-.83-15.312-5-22 1.862 1.975 3.862 2.308 6 1a112.33 112.33 0 0 0 2-5l1 .5c1.621 2.166 2.455 4.666 2.5 7.5a1080.38 1080.38 0 0 1-.5 60c1.599-.268 2.932.066 4 1Z"/><path fill="#736d43" d="M153.5 226.5h2c-4.489 7.062-3.489 13.395 3 19 .843 1.673 2.176 2.84 4 3.5 3.388.659 6.721.492 10-.5-.111.617-.444 1.117-1 1.5-5.183.908-10.183.408-15-1.5-6.552-6.645-7.552-13.978-3-22Z"/><path fill="#f9d5c2" d="M140.5 237.5c4.204 5.188 9.538 8.854 16 11 4.817 1.908 9.817 2.408 15 1.5.556-.383.889-.883 1-1.5h1c.06.543.393.876 1 1a95.69 95.69 0 0 1 9-3c1.256-.039 2.256.461 3 1.5-.616 1.4-.949 2.9-1 4.5.449 2.823 1.449 5.323 3 7.5-.632 3.085-.632 6.252 0 9.5 1.599-.268 2.932.066 4 1h-48c.709-.904 1.709-1.237 3-1a1439.524 1439.524 0 0 1-1.5-16c-2-3.994-4-7.994-6-12-.765-1.566-.598-2.899.5-4Z"/><path fill="#c3c3a2" d="M264.5 239.5a72.357 72.357 0 0 1-3 7.5c-2.31.497-4.643.663-7 .5a10.165 10.165 0 0 0 3-3 43.25 43.25 0 0 0 7-5Z"/><path fill="#636768" d="m244.5 227.5-1 2c-.617.111-1.117.444-1.5 1-1.91 8.182.924 13.848 8.5 17a10.165 10.165 0 0 0 3 3h-5c-7.762-3.852-11.096-10.185-10-19a18.478 18.478 0 0 1 6-4Z"/><path fill="#efc8b3" d="M233.5 245.5c.992-.172 1.658.162 2 1-3.104 1.176-3.77 3.343-2 6.5-1.546 2.868-2.546 6.035-3 9.5.072 2.06.405 4.06 1 6a112.33 112.33 0 0 0-5 2h-34c-1.068-.934-2.401-1.268-4-1-.632-3.248-.632-6.415 0-9.5-1.551-2.177-2.551-4.677-3-7.5.051-1.6.384-3.1 1-4.5-.744-1.039-1.744-1.539-3-1.5 1.171-.845 2.505-1.511 4-2 2.97 6.212 6.803 6.545 11.5 1a946.619 946.619 0 0 0 3.5-36c4.652.498 9.319.831 14 1a1961.114 1961.114 0 0 0 3 31 32.364 32.364 0 0 0 4 5.5 49.923 49.923 0 0 0 10-1.5Z"/><path fill="#d9b19b" d="M232.5 203.5c.951 1.618 2.284 2.951 4 4a117.735 117.735 0 0 1 24-5c-2.131.814-4.464 1.314-7 1.5a107.994 107.994 0 0 0-13.5 10.5c-.667 1.333-.667 2.667 0 4 2.481 1.814 5.315 2.48 8.5 2l-2 2c-3.189 1.014-6.022 2.68-8.5 5a21.53 21.53 0 0 1-5 6c-.74 1.249-.573 2.249.5 3-3.79 3.157-3.79 6.157 0 9a49.923 49.923 0 0 1-10 1.5 32.364 32.364 0 0 1-4-5.5 1961.114 1961.114 0 0 1-3-31 198.913 198.913 0 0 1-14-1 946.619 946.619 0 0 1-3.5 36c-4.697 5.545-8.53 5.212-11.5-1 0-.667.333-1 1-1 2.544.396 4.711-.271 6.5-2a30.485 30.485 0 0 0 0-11c-4.502-4.435-10.002-6.268-16.5-5.5l6-1-12-1.5c-3.026-1.519-6.359-2.185-10-2l-7 .5c-.916.278-1.582.778-2 1.5h-2c-8.116 1.689-11.783 6.355-11 14v1c-1.098 1.101-1.265 2.434-.5 4 2 4.006 4 8.006 6 12 .471 5.344.971 10.678 1.5 16-1.291-.237-2.291.096-3 1h-16v-1h8a500.985 500.985 0 0 1-1.5-56l2-6c1.616 1.301 3.116 1.301 4.5 0 1.928-1.974 4.261-3.474 7-4.5 11.461-.622 22.628.878 33.5 4.5a30.786 30.786 0 0 0 4.5-3c.904-.709 1.237-1.709 1-3 14.207 5.208 28.374 5.208 42.5 0 1.011.556 1.844 1.222 2.5 2Z"/><path fill="#e3e2df" d="M180.5 231.5c2 1.333 3.667 3 5 5 1.812 1.961 2.812 4.294 3 7-.667 0-1 .333-1 1-1.495.489-2.829 1.155-4 2a95.69 95.69 0 0 0-9 3c-.607-.124-.94-.457-1-1 1-.333 1.667-1 2-2 4.224-4.006 5.891-9.006 5-15Z"/><path fill="#92722b" d="M156.5 225.5h2c-1.581 1.642-2.247 3.642-2 6-.746 8.891 3.254 13.224 12 13-3.066 2.139-6.399 2.473-10 1-6.489-5.605-7.489-11.938-3-19 0-.667.333-1 1-1Z"/><path fill="#998349" d="M176.5 228.5c1.904.238 3.238 1.238 4 3 .891 5.994-.776 10.994-5 15v-3a20.69 20.69 0 0 0-5 1 895.436 895.436 0 0 0 4.5-7c.703-2.429.537-4.762-.5-7 0-1.333.667-2 2-2Z"/><path fill="#e3e2e1" d="M153.5 226.5c-4.552 8.022-3.552 15.355 3 22-6.462-2.146-11.796-5.812-16-11v-1a18.924 18.924 0 0 0 3-5c2.782-2.724 6.115-4.391 10-5Z"/><path fill="#896f60" d="M151.5 222.5a89.868 89.868 0 0 1-8.5 7c-.692.937-.525 1.603.5 2a18.924 18.924 0 0 1-3 5c-.783-7.645 2.884-12.311 11-14Z"/><path fill="#bd957e" d="m172.5 222.5 12 1.5-6 1c6.498-.768 11.998 1.065 16.5 5.5a30.485 30.485 0 0 1 0 11c-1.789 1.729-3.956 2.396-6.5 2-.188-2.706-1.188-5.039-3-7 1.073-.751 1.24-1.751.5-3-3.819-4.667-8.319-8.334-13.5-11Z"/><path fill="#edebe9" d="M158.5 225.5c1.459-.067 2.792.266 4 1 1.16 5.166-.84 6.832-6 5-.247-2.358.419-4.358 2-6Z"/><path fill="#0a0602" d="M162.5 226.5c4.867-.911 8.867.422 12 4 1.037 2.238 1.203 4.571.5 7a895.436 895.436 0 0 1-4.5 7h-2c-8.746.224-12.746-4.109-12-13 5.16 1.832 7.16.166 6-5Z"/><path fill="#7c6456" d="M172.5 222.5a45.636 45.636 0 0 0-19 0c.418-.722 1.084-1.222 2-1.5l7-.5c3.641-.185 6.974.481 10 2Z"/><path fill="#0f0b08" d="M172.5 222.5c5.181 2.666 9.681 6.333 13.5 11 .74 1.249.573 2.249-.5 3-1.333-2-3-3.667-5-5-.762-1.762-2.096-2.762-4-3-6.278-3.854-12.944-4.854-20-3-.667 0-1 .333-1 1h-2c-3.885.609-7.218 2.276-10 5-1.025-.397-1.192-1.063-.5-2a89.868 89.868 0 0 0 8.5-7h2a45.636 45.636 0 0 1 19 0Z"/><path fill="#5a411d" d="M156.5 225.5c7.056-1.854 13.722-.854 20 3-1.333 0-2 .667-2 2-3.133-3.578-7.133-4.911-12-4-1.208-.734-2.541-1.067-4-1h-2Z"/><path fill="#ebc5b0" d="M278.5 237.5c.876-.131 1.543.202 2 1-5.92 10.222-7.253 20.889-4 32h-11c-.778-.656-1.444-1.489-2-2.5a685.715 685.715 0 0 0 9-23.5c1.977-2.314 3.977-4.647 6-7Z"/><path d="M89.5 268.5c1.333.667 1.333.667 0 0Z" opacity=".004"/><path fill="#e2e4e4" d="M110.5 241.5c2.456 2.318 3.789 5.318 4 9v4c-1.89.203-3.39-.463-4.5-2 1.143 5.924 2.31 11.924 3.5 18h176a62.792 62.792 0 0 0 15.5-1 221.1 221.1 0 0 0 4-17c-1.11 1.537-2.61 2.203-4.5 2v-6c1.037-1.43 1.704-3.097 2-5 .333-1 1-1.667 2-2 4.951 1.958 7.618 5.625 8 11a102.276 102.276 0 0 1-3 17 46.755 46.755 0 0 0 13-1c1.196.346 1.196.846 0 1.5 1.829.273 3.329 1.107 4.5 2.5l1-1a80.867 80.867 0 0 1 1.5 20c-.985-4.134-1.318-8.468-1-13a5.727 5.727 0 0 0-1-3c-1.02-1.852-2.52-3.185-4.5-4a3578.907 3578.907 0 0 1-119 2 7074.789 7074.789 0 0 1-118.5-1 184.223 184.223 0 0 1-3 2c.61-1.934 1.61-3.601 3-5 4.915-.612 10.249-.612 16 0a136.602 136.602 0 0 1-3-16c.19-5.728 2.856-9.728 8-12Z"/><path fill="#b8aa69" d="M175.5 246.5c-.333 1-1 1.667-2 2h-1c-3.279.992-6.612 1.159-10 .5-1.824-.66-3.157-1.827-4-3.5 3.601 1.473 6.934 1.139 10-1h2a20.69 20.69 0 0 1 5-1v3Z"/><path fill="#fbd7c4" d="M272.5 244.5a685.715 685.715 0 0 1-9 23.5c.556 1.011 1.222 1.844 2 2.5h-39a112.33 112.33 0 0 1 5-2 23.127 23.127 0 0 1-1-6c.454-3.465 1.454-6.632 3-9.5-1.77-3.157-1.104-5.324 2-6.5a38.31 38.31 0 0 0 13 4h5a33.691 33.691 0 0 0 9-2 92.214 92.214 0 0 0 10-4Z"/><path fill="#d1d3d6" d="M331.5 275.5c-81.835-.333-163.502.001-245 1h-1c-.172-.992.162-1.658 1-2 .982-.641 1.982-1.307 3-2 39.459.664 78.959.997 118.5 1 39.773-.009 79.44-.675 119-2 1.98.815 3.48 2.148 4.5 4Z"/><path d="M84.5 276.5c-.667-1.333-.667-1.333 0 0Z" opacity=".004"/><path fill="#bdbfc4" d="M86.5 276.5c81.498-.999 163.165-1.333 245-1 .61.891.943 1.891 1 3-1.38-1.206-2.547-.873-3.5 1a465.901 465.901 0 0 0-3 35c-.22 3.016-1.387 5.516-3.5 7.5.457.414.791.914 1 1.5-1.859-.388-3.859-.388-6 0a28.931 28.931 0 0 0-4-1.5c1.154-.914.987-1.747-.5-2.5a4.933 4.933 0 0 1-2.5 1c-1.286-.352-2.119-1.018-2.5-2a9.568 9.568 0 0 0-3 3 6.547 6.547 0 0 1-3-3c-1.558.845-2.558.179-3-2-1 1.333-2 1.333-3 0-.589 2.363-2.089 3.363-4.5 3 .285-1.788-.048-3.455-1-5-1.196.346-1.196.846 0 1.5-1.049.492-2.049.326-3-.5l-2 2c-.564-1.518-1.731-3.184-3.5-5-1.114 3.799-2.447 3.799-4 0-.914 3.685-1.581 3.352-2-1l-2 2c-2.277-4.047-3.944-3.714-5 1-2.4-5.087-5.4-5.754-9-2-.131-3.892-1.631-4.725-4.5-2.5 2.401.805 2.234 1.638-.5 2.5-1.646-1.555-1.979-3.221-1-5l-2 2-3-3a18.08 18.08 0 0 1-3.5 2c-.704-1.601-1.871-2.935-3.5-4-.388.928-1.055 1.595-2 2a127.818 127.818 0 0 1-2-3 6.802 6.802 0 0 1-1.5 3c-1.331-1.092-2.164-2.426-2.5-4a7.248 7.248 0 0 1-2.5 2c-1.22-1.211-2.387-1.211-3.5 0-.605-1.981-1.605-2.315-3-1-2.157-2.578-3.323-2.578-3.5 0l-3-1.5c1.196-.654 1.196-1.154 0-1.5-1.598.985-3.265 1.151-5 .5l3-1c-1.877-.576-3.711-.409-5.5.5-2.071-1.321-4.071-2.321-6-3-1.043 3.726-1.543 3.393-1.5-1-1.644.214-3.144-.12-4.5-1l-1 2c-2.449-.437-4.783-.437-7 0a19.887 19.887 0 0 1-3.5-4c-1.463.132-2.963.465-4.5 1a34.875 34.875 0 0 0-5.5-4c-3.07 2.123-6.07 1.79-9-1a6.802 6.802 0 0 0-1.5 3c-.635-3.602-1.968-4.268-4-2a95.52 95.52 0 0 1-5-3c-2.424 1.661-4.258 1.161-5.5-1.5l1-1c-3.527-.882-4.193-.382-2 1.5a11.38 11.38 0 0 1-2.5 2l-1-5c-4.061 1.128-7.728 1.128-11 0-.807 3.949-1.307 3.949-1.5 0a4.934 4.934 0 0 1-3-.5l4-2-1.5-.5c-1.15.924-2.15.924-3 0a13.92 13.92 0 0 1-4 3h-4c-1.21-3.092-3.544-4.759-7-5-3.029.316-6.029.65-9 1a145.097 145.097 0 0 0-21.5-3Z"/><path fill="#b3b5ba" d="M84.5 276.5h2a145.097 145.097 0 0 1 21.5 3c2.971-.35 5.971-.684 9-1 3.456.241 5.79 1.908 7 5h4a13.92 13.92 0 0 0 4-3c.85.924 1.85.924 3 0l1.5.5-4 2a4.934 4.934 0 0 0 3 .5c.193 3.949.693 3.949 1.5 0 3.272 1.128 6.939 1.128 11 0l1 5a11.38 11.38 0 0 0 2.5-2c-2.193-1.882-1.527-2.382 2-1.5l-1 1c1.242 2.661 3.076 3.161 5.5 1.5a95.52 95.52 0 0 0 5 3c2.032-2.268 3.365-1.602 4 2a6.802 6.802 0 0 1 1.5-3c2.93 2.79 5.93 3.123 9 1a34.875 34.875 0 0 1 5.5 4c1.537-.535 3.037-.868 4.5-1a19.887 19.887 0 0 0 3.5 4c2.217-.437 4.551-.437 7 0l1-2c1.356.88 2.856 1.214 4.5 1-.043 4.393.457 4.726 1.5 1 1.929.679 3.929 1.679 6 3 1.789-.909 3.623-1.076 5.5-.5l-3 1c1.735.651 3.402.485 5-.5 1.196.346 1.196.846 0 1.5l3 1.5c.177-2.578 1.343-2.578 3.5 0 1.395-1.315 2.395-.981 3 1 1.113-1.211 2.28-1.211 3.5 0a7.248 7.248 0 0 0 2.5-2c.336 1.574 1.169 2.908 2.5 4a6.802 6.802 0 0 0 1.5-3 127.818 127.818 0 0 0 2 3c.945-.405 1.612-1.072 2-2 1.629 1.065 2.796 2.399 3.5 4a18.08 18.08 0 0 0 3.5-2l3 3 2-2c-.979 1.779-.646 3.445 1 5 2.734-.862 2.901-1.695.5-2.5 2.869-2.225 4.369-1.392 4.5 2.5 3.6-3.754 6.6-3.087 9 2 1.056-4.714 2.723-5.047 5-1l2-2c.419 4.352 1.086 4.685 2 1 1.553 3.799 2.886 3.799 4 0 1.769 1.816 2.936 3.482 3.5 5l2-2c.951.826 1.951.992 3 .5-1.196-.654-1.196-1.154 0-1.5.952 1.545 1.285 3.212 1 5 2.411.363 3.911-.637 4.5-3 1 1.333 2 1.333 3 0 .442 2.179 1.442 2.845 3 2a6.547 6.547 0 0 0 3 3 9.568 9.568 0 0 1 3-3c.381.982 1.214 1.648 2.5 2a4.933 4.933 0 0 0 2.5-1c1.487.753 1.654 1.586.5 2.5 1.372.402 2.705.902 4 1.5 2.141-.388 4.141-.388 6 0a3.647 3.647 0 0 0-1-1.5c2.113-1.984 3.28-4.484 3.5-7.5a465.901 465.901 0 0 1 3-35c.953-1.873 2.12-2.206 3.5-1-.318 4.532.015 8.866 1 13a374.586 374.586 0 0 0-1.5 50c-.175-4.519-.675-8.853-1.5-13 .046-4.667-.787-8.667-2.5-12a922.508 922.508 0 0 1-4 30c-.304 1.941-1.137 3.607-2.5 5 1.336 1.875.836 3.208-1.5 4-1.667-1-3-2.333-4-4a13.92 13.92 0 0 1-4 3c.783-1.845 1.116-3.845 1-6-.317 1.801-.984 2.134-2 1a13.92 13.92 0 0 0-4 3c-1.747-4.338-4.081-5.004-7-2a6.547 6.547 0 0 1-3-3l-1 1a7.293 7.293 0 0 0-2-3c-2.244 2.494-4.577 2.494-7 0-2.093.746-4.093 1.079-6 1a7.293 7.293 0 0 1-2-3c-3.35 2.707-5.017 1.707-5-3-.388.928-1.055 1.595-2 2-2.055-1.192-4.055-1.192-6 0-2.084-2.533-4.084-2.533-6 0a11.333 11.333 0 0 0-1.5-3.5c-2.951-.096-5.618-.929-8-2.5-1.098 3.861-1.931 3.861-2.5 0a7.293 7.293 0 0 0-2 3c-1.844-1.211-2.678-2.544-2.5-4-1.154 2.356-2.487 2.523-4 .5 2.095-.556 2.262-1.056.5-1.5-6.631 1.051-12.298 1.051-17 0l-1-2c-1.84 1.333-2.34 1.166-1.5-.5-2.576-2.332-4.576-1.665-6 2-1.525 1.009-3.192 1.509-5 1.5-.028-2.082.639-3.916 2-5.5-1.036-1.617-2.203-1.784-3.5-.5a7.293 7.293 0 0 1-2-3 7.293 7.293 0 0 1-2 3c.617-1.595.284-2.928-1-4l-1.5 1.5c1.231 1.183 1.231 2.349 0 3.5-.704-1.571-2.037-3.238-4-5-.169.897-.502 1.897-1 3a19.887 19.887 0 0 1-3.5-4c-2.26 2.497-3.593 1.83-4-2-2.058 3.592-3.725 3.592-5 0l-3 1c-.691-2.391-1.691-2.391-3 0a4.457 4.457 0 0 0-1.5-2l-6 1c.203-4.059-1.464-4.725-5-2a7.248 7.248 0 0 1-2.5-2l-1 2c-2.734-2.793-3.734-2.459-3 1-1.011-.837-2.178-1.17-3.5-1 .087-3.098-.413-3.432-1.5-1-1.079-1.894-2.413-2.227-4-1-.29-1.544-.956-2.877-2-4l-3 1a87.783 87.783 0 0 0-5-3c-.725 1.658-1.892 2.158-3.5 1.5 1.456-.423 1.956-1.256 1.5-2.5h-4c-1.734 1.951-3.901 2.951-6.5 3 .225-3.556-.608-3.89-2.5-1a38.284 38.284 0 0 1-6.5-2.5c1.154-.914.987-1.747-.5-2.5l-1 2a29.517 29.517 0 0 0-4.5-2.5c.443-1.518-.224-2.685-2-3.5-.169.897-.502 1.897-1 3-1.188-1.34-2.688-2.007-4.5-2-3.944.112-7.444.112-10.5 0-1.91-2.411-3.244-5.077-4-8-.358-3.189-1.025-6.189-2-9a9.864 9.864 0 0 0-1-6 345.429 345.429 0 0 1-2 8c-.627-4.641-.96-9.307-1-14Z"/><path d="M84.5 291.5c-1.098-1.101-1.265-2.434-.5-4a8.435 8.435 0 0 1 .5 4ZM84.5 292.5c-.667.667-.667.667 0 0Z" opacity=".004"/><path fill="#d2d2d2" d="M86.5 310.5c.992 7.482 1.325 15.148 1 23a664.114 664.114 0 0 1-2-19c.346-1.349.679-2.683 1-4Z" opacity=".092"/><path fill="#999ba0" d="M88.5 288.5a5453.25 5453.25 0 0 1 5.5 60c.772 1.349 1.94 2.182 3.5 2.5-2.552 1.516-2.218 2.349 1 2.5 1.313-3.806 2.48-3.473 3.5 1l2-2c-.979 1.779-.646 3.445 1 5 .19-5.137 1.524-5.803 4-2l1-2 1 4 1-2 2 4c.551-3.057 2.217-3.39 5-1 1.16-2.297 2.16-1.964 3 1 .953-2.092 2.286-2.425 4-1l1-2c.741 3.685 2.241 4.351 4.5 2l1 2c.806-2.862 2.139-3.362 4-1.5-1.658.725-2.158 1.892-1.5 3.5a14.972 14.972 0 0 1 3.5-3v3a3.647 3.647 0 0 0 1.5-1c1.784 2.503 3.451 2.503 5 0a7.293 7.293 0 0 1 2 3c.725-1.658 1.892-2.158 3.5-1.5-1.284 1.297-1.117 2.464.5 3.5 1.487-.753 1.654-1.586.5-2.5 1.575.379 3.075.212 4.5-.5a6.547 6.547 0 0 1 3 3c.875-2.013 2.209-2.013 4 0l1-1 7 5c.413-5.413 1.58-5.913 3.5-1.5 2.46.981 4.96 1.815 7.5 2.5 1.326-.255 2.326-.922 3-2 .667 1.333 1.333 1.333 2 0l1 3c1.865-2.355 4.031-2.522 6.5-.5l-5 1 3 1.5c.925-1.141 1.759-1.141 2.5 0 .368-1.41 1.201-2.41 2.5-3a18.68 18.68 0 0 1 6.5 6v-4l1 1c.71-1.473 1.876-2.14 3.5-2 .273 1.951-.393 3.451-2 4.5 1.635.54 2.968.04 4-1.5a4.457 4.457 0 0 1 1.5 2c2.17.506 4.504.506 7 0 2.35 1.004 4.684 2.004 7 3l1-2c1.491 1.504 3.324 2.337 5.5 2.5-1.196.654-1.196 1.154 0 1.5 2.247-2.009 4.08-1.342 5.5 2 2.075-2.148 4.408-2.482 7-1 1.676-.561 3.009-1.561 4-3a329.475 329.475 0 0 0 5 6c1.857-3.88 3.19-3.546 4 1a6.547 6.547 0 0 0 3-3 11.333 11.333 0 0 0 3.5 1.5 4.934 4.934 0 0 1-3 .5c.17 1.322-.163 2.489-1 3.5a4.934 4.934 0 0 0 3 .5v-3c5.321-.521 10.321.479 15 3a4.457 4.457 0 0 0 1.5-2 12.403 12.403 0 0 0 2.5 4l1-2c2.138.929 3.304 2.596 3.5 5 2.667-2.667 5.333-2.667 8 0 .725-1.658 1.892-2.158 3.5-1.5-2.764 1.544-2.597 2.711.5 3.5.098-2.119.931-3.786 2.5-5a6.802 6.802 0 0 1 1.5 3c2.855-3.024 4.855-2.024 6 3 .551-3.057 2.217-3.39 5-1 2.399-.472 4.399.528 6 3-.423-2.376.411-4.543 2.5-6.5l-1-1a174.898 174.898 0 0 0 4-37.5 40.713 40.713 0 0 1 2.5-10c-.053 3.175.78 5.842 2.5 8-.93 3.9-1.263 7.9-1 12-.934 1.068-1.268 2.401-1 4v4a46.809 46.809 0 0 0-1 13c-.996-.086-1.829.248-2.5 1a243.891 243.891 0 0 1-5 23c-1.822 1.545-3.989 2.212-6.5 2a64.71 64.71 0 0 0-19.5 0c-5.71-.265-11.21-1.265-16.5-3-2.54 1.639-4.707 1.306-6.5-1a14.972 14.972 0 0 1-3.5 3 4.457 4.457 0 0 1-1.5-2c-3.651.952-6.817-.048-9.5-3-2.504-.07-4.837.263-7 1-2.066-4.006-3.566-3.673-4.5 1-.595-3.582-1.929-3.916-4-1-.617-.949-.451-1.782.5-2.5a6.978 6.978 0 0 1-2.5-3.5 6.547 6.547 0 0 0-3 3c-2.056-5.265-4.056-5.265-6 0-2.285-2.797-4.785-3.13-7.5-1a4.457 4.457 0 0 1-2-1.5c1.231-1.183 1.231-2.349 0-3.5-1.856.776-3.189 2.109-4 4a38.085 38.085 0 0 0-2.5-7c-1.914 1.176-1.748 2.176.5 3-1.519 2.564-3.019 2.564-4.5 0-1.587 1.227-2.921.894-4-1-1.049 1.017-2.216 1.184-3.5.5-.14-1.264-.14-2.431 0-3.5-.925 1.141-1.759 1.141-2.5 0a4.457 4.457 0 0 1-1.5 2 6.846 6.846 0 0 0-4-1 4.934 4.934 0 0 1-.5 3c-1.105-5.128-2.438-5.128-4 0l-5-8a6.802 6.802 0 0 1-1.5 3c-1.196-.346-1.196-.846 0-1.5-2.988-1.52-5.988-1.686-9-.5v-3c-2.493-.171-4.326.829-5.5 3-1.646-1.555-1.979-3.221-1-5-1.512 2.457-2.846 2.457-4 0-1.188 1.063-1.688 2.397-1.5 4-2.55-.061-4.05-1.394-4.5-4-.368 1.41-1.201 2.41-2.5 3a23.577 23.577 0 0 1-1-3.5c-1.979-.684-3.646-.184-5 1.5-1.393-1.363-3.059-2.196-5-2.5.951-.718 1.117-1.551.5-2.5-.667 1.333-1.333 1.333-2 0-.617.949-.451 1.782.5 2.5a44.136 44.136 0 0 0-6.5.5l-6-6c-1.16 2.297-2.16 1.964-3-1l-1 3c-.368-1.41-1.201-2.41-2.5-3-2.527 1.971-5.193 2.637-8 2a15.69 15.69 0 0 1 4-2c1.021-.502 1.188-1.168.5-2-2.924.126-5.591 1.459-8 4l-1-5c-.29 1.544-.956 2.877-2 4-1-1.333-2-1.333-3 0a21.83 21.83 0 0 0-5-6c-1.585.876-2.585 2.209-3 4-.318-1.561-1.15-2.728-2.5-3.5a7.248 7.248 0 0 0 2-2.5c-1.219.391-2.052-.276-2.5-2a225.199 225.199 0 0 1-4-24 3.647 3.647 0 0 1-1.5 1 64.873 64.873 0 0 0-1 16h-1v-15c.32-4.863-.014-9.53-1-14 .325-7.852-.008-15.518-1-23l-2-18v-1c.667 0 1-.333 1-1a345.429 345.429 0 0 0 2-8 9.864 9.864 0 0 1 1 6Z"/><path d="M332.5 324.5c1.333.667 1.333.667 0 0Z" opacity=".004"/><path fill="#a1a3a8" d="M88.5 288.5c.975 2.811 1.642 5.811 2 9a88.409 88.409 0 0 0 2.5 20c1.147-.958 2.147-.625 3 1 .05 4.825 1.716 5.159 5 1a344.653 344.653 0 0 1 8.5 5c1.663-2.301 3.497-2.301 5.5 0 1.398-.551 2.732-.884 4-1 .667 4 1.333 4 2 0a60.787 60.787 0 0 1 11 7c.945-.405 1.612-1.072 2-2 1.333 1.333 2.667 1.333 4 0a52.425 52.425 0 0 1 6.5 4c2.01-.849 3.677-.182 5 2 .42-3.922 1.92-3.922 4.5 0 3.29.074 6.457-.26 9.5-1a10.258 10.258 0 0 1 1.5 4c1.594-3.309 3.594-3.309 6 0l1-2c2 .667 3.333 2 4 4a4.457 4.457 0 0 1 1.5-2c1.028 1.861 2.528 3.195 4.5 4 .617-.949.451-1.782-.5-2.5 1.699-.393 3.199.107 4.5 1.5a3.943 3.943 0 0 0 2-1 12.403 12.403 0 0 0 2.5 4c.886-.825 1.219-1.825 1-3 1.459-.067 2.792.266 4 1-1.784 8.481.549 15.648 7 21.5 5-.667 10-.667 15 0 2.587-1.995 4.587-4.495 6-7.5 1.93-3.462 4.596-3.962 8-1.5-1.196.654-1.196 1.154 0 1.5h5a4.457 4.457 0 0 1 1.5 2c1.101-1.894 2.434-2.561 4-2 .47 4.043 1.97 4.71 4.5 2a203.361 203.361 0 0 0 16 4 10.305 10.305 0 0 0 3-1c-.204 1.029.296 2.029 1.5 3l1-2c1.095 4.89 1.762 4.89 2 0 1.779 2.776 2.779 2.443 3-1 1.333 2.667 2.667 2.667 4 0 .483.948.649 1.948.5 3a79.155 79.155 0 0 0 12 3.5 9.454 9.454 0 0 1 1.5 2.5 4.457 4.457 0 0 1 1.5-2c1 1.333 2 1.333 3 0a7.248 7.248 0 0 1 2.5 2l1-1c1.204.971 1.704 1.971 1.5 3a9.258 9.258 0 0 1 2.5-2c1.333 1.333 2.667 1.333 4 0a21.783 21.783 0 0 0 6 5l1-2a13.24 13.24 0 0 1 5 3 8.905 8.905 0 0 1 3-4c.432-5.63 1.598-10.963 3.5-16a174.898 174.898 0 0 1-4 37.5l1 1c-2.089 1.957-2.923 4.124-2.5 6.5-1.601-2.472-3.601-3.472-6-3-2.783-2.39-4.449-2.057-5 1-1.145-5.024-3.145-6.024-6-3a6.802 6.802 0 0 0-1.5-3c-1.569 1.214-2.402 2.881-2.5 5-3.097-.789-3.264-1.956-.5-3.5-1.608-.658-2.775-.158-3.5 1.5-2.667-2.667-5.333-2.667-8 0-.196-2.404-1.362-4.071-3.5-5l-1 2a12.403 12.403 0 0 1-2.5-4 4.457 4.457 0 0 1-1.5 2c-4.679-2.521-9.679-3.521-15-3v3a4.934 4.934 0 0 1-3-.5c.837-1.011 1.17-2.178 1-3.5a4.934 4.934 0 0 0 3-.5 11.333 11.333 0 0 1-3.5-1.5 6.547 6.547 0 0 1-3 3c-.81-4.546-2.143-4.88-4-1a329.475 329.475 0 0 1-5-6c-.991 1.439-2.324 2.439-4 3-2.592-1.482-4.925-1.148-7 1-1.42-3.342-3.253-4.009-5.5-2-1.196-.346-1.196-.846 0-1.5-2.176-.163-4.009-.996-5.5-2.5l-1 2c-2.316-.996-4.65-1.996-7-3-2.496.506-4.83.506-7 0a4.457 4.457 0 0 0-1.5-2c-1.032 1.54-2.365 2.04-4 1.5 1.607-1.049 2.273-2.549 2-4.5-1.624-.14-2.79.527-3.5 2l-1-1v4a18.68 18.68 0 0 0-6.5-6c-1.299.59-2.132 1.59-2.5 3-.741-1.141-1.575-1.141-2.5 0l-3-1.5 5-1c-2.469-2.022-4.635-1.855-6.5.5l-1-3c-.667 1.333-1.333 1.333-2 0-.674 1.078-1.674 1.745-3 2a68.116 68.116 0 0 1-7.5-2.5c-1.92-4.413-3.087-3.913-3.5 1.5l-7-5-1 1c-1.791-2.013-3.125-2.013-4 0a6.547 6.547 0 0 0-3-3c-1.425.712-2.925.879-4.5.5 1.154.914.987 1.747-.5 2.5-1.617-1.036-1.784-2.203-.5-3.5-1.608-.658-2.775-.158-3.5 1.5a7.293 7.293 0 0 0-2-3c-1.549 2.503-3.216 2.503-5 0a3.647 3.647 0 0 1-1.5 1v-3a14.972 14.972 0 0 0-3.5 3c-.658-1.608-.158-2.775 1.5-3.5-1.861-1.862-3.194-1.362-4 1.5l-1-2c-2.259 2.351-3.759 1.685-4.5-2l-1 2c-1.714-1.425-3.047-1.092-4 1-.84-2.964-1.84-3.297-3-1-2.783-2.39-4.449-2.057-5 1l-2-4-1 2-1-4-1 2c-2.476-3.803-3.81-3.137-4 2-1.646-1.555-1.979-3.221-1-5l-2 2c-1.02-4.473-2.187-4.806-3.5-1-3.218-.151-3.552-.984-1-2.5-1.56-.318-2.728-1.151-3.5-2.5a5453.25 5453.25 0 0 0-5.5-60Z"/><path fill="#abadb1" d="M90.5 297.5c.756 2.923 2.09 5.589 4 8 3.056.112 6.556.112 10.5 0 1.812-.007 3.312.66 4.5 2 .498-1.103.831-2.103 1-3 1.776.815 2.443 1.982 2 3.5a29.517 29.517 0 0 1 4.5 2.5l1-2c1.487.753 1.654 1.586.5 2.5a38.284 38.284 0 0 0 6.5 2.5c1.892-2.89 2.725-2.556 2.5 1 2.599-.049 4.766-1.049 6.5-3h4c.456 1.244-.044 2.077-1.5 2.5 1.608.658 2.775.158 3.5-1.5a87.783 87.783 0 0 1 5 3l3-1c1.044 1.123 1.71 2.456 2 4 1.587-1.227 2.921-.894 4 1 1.087-2.432 1.587-2.098 1.5 1 1.322-.17 2.489.163 3.5 1-.734-3.459.266-3.793 3-1l1-2a7.248 7.248 0 0 0 2.5 2c3.536-2.725 5.203-2.059 5 2l6-1a4.457 4.457 0 0 1 1.5 2c1.309-2.391 2.309-2.391 3 0l3-1c1.275 3.592 2.942 3.592 5 0 .407 3.83 1.74 4.497 4 2a19.887 19.887 0 0 0 3.5 4c.498-1.103.831-2.103 1-3 1.963 1.762 3.296 3.429 4 5 1.231-1.151 1.231-2.317 0-3.5l1.5-1.5c1.284 1.072 1.617 2.405 1 4a7.293 7.293 0 0 0 2-3 7.293 7.293 0 0 0 2 3c1.297-1.284 2.464-1.117 3.5.5-1.361 1.584-2.028 3.418-2 5.5 1.808.009 3.475-.491 5-1.5 1.424-3.665 3.424-4.332 6-2-.84 1.666-.34 1.833 1.5.5l1 2c4.702 1.051 10.369 1.051 17 0 1.762.444 1.595.944-.5 1.5 1.513 2.023 2.846 1.856 4-.5-.178 1.456.656 2.789 2.5 4a7.293 7.293 0 0 1 2-3c.569 3.861 1.402 3.861 2.5 0 2.382 1.571 5.049 2.404 8 2.5a11.333 11.333 0 0 1 1.5 3.5c1.916-2.533 3.916-2.533 6 0 1.945-1.192 3.945-1.192 6 0 .945-.405 1.612-1.072 2-2-.017 4.707 1.65 5.707 5 3a7.293 7.293 0 0 0 2 3c1.907.079 3.907-.254 6-1 2.423 2.494 4.756 2.494 7 0a7.293 7.293 0 0 1 2 3l1-1a6.547 6.547 0 0 0 3 3c2.919-3.004 5.253-2.338 7 2a13.92 13.92 0 0 1 4-3c1.016 1.134 1.683.801 2-1 .116 2.155-.217 4.155-1 6a13.92 13.92 0 0 0 4-3c1 1.667 2.333 3 4 4 2.336-.792 2.836-2.125 1.5-4 1.363-1.393 2.196-3.059 2.5-5a922.508 922.508 0 0 0 4-30c1.713 3.333 2.546 7.333 2.5 12v25c-1.72-2.158-2.553-4.825-2.5-8a40.713 40.713 0 0 0-2.5 10c-1.902 5.037-3.068 10.37-3.5 16a8.905 8.905 0 0 0-3 4 13.24 13.24 0 0 0-5-3l-1 2a21.783 21.783 0 0 1-6-5c-1.333 1.333-2.667 1.333-4 0a9.258 9.258 0 0 0-2.5 2c.204-1.029-.296-2.029-1.5-3l-1 1a7.248 7.248 0 0 0-2.5-2c-1 1.333-2 1.333-3 0a4.457 4.457 0 0 0-1.5 2 9.454 9.454 0 0 0-1.5-2.5 79.155 79.155 0 0 1-12-3.5 4.934 4.934 0 0 0-.5-3c-1.333 2.667-2.667 2.667-4 0-.221 3.443-1.221 3.776-3 1-.238 4.89-.905 4.89-2 0l-1 2c-1.204-.971-1.704-1.971-1.5-3-.946.487-1.946.82-3 1a203.361 203.361 0 0 1-16-4c-2.53 2.71-4.03 2.043-4.5-2-1.566-.561-2.899.106-4 2a4.457 4.457 0 0 0-1.5-2h-5c-1.196-.346-1.196-.846 0-1.5-3.404-2.462-6.07-1.962-8 1.5-2.122-2.584-3.456-5.584-4-9 .179-2.691 1.179-5.025 3-7-1.559-2.195-3.726-3.195-6.5-3-4.171 1.279-8.338 1.279-12.5 0-3.693.172-6.359 1.839-8 5-1.208-.734-2.541-1.067-4-1 .219 1.175-.114 2.175-1 3a12.403 12.403 0 0 1-2.5-4 3.943 3.943 0 0 1-2 1c-1.301-1.393-2.801-1.893-4.5-1.5.951.718 1.117 1.551.5 2.5-1.972-.805-3.472-2.139-4.5-4a4.457 4.457 0 0 0-1.5 2c-.667-2-2-3.333-4-4l-1 2c-2.406-3.309-4.406-3.309-6 0a10.258 10.258 0 0 0-1.5-4c-3.043.74-6.21 1.074-9.5 1-2.58-3.922-4.08-3.922-4.5 0-1.323-2.182-2.99-2.849-5-2a52.425 52.425 0 0 0-6.5-4c-1.333 1.333-2.667 1.333-4 0-.388.928-1.055 1.595-2 2a60.787 60.787 0 0 0-11-7c-.667 4-1.333 4-2 0-1.268.116-2.602.449-4 1-2.003-2.301-3.837-2.301-5.5 0a344.653 344.653 0 0 0-8.5-5c-3.284 4.159-4.95 3.825-5-1-.853-1.625-1.853-1.958-3-1a88.409 88.409 0 0 1-2.5-20Z"/><path fill="#e4e5e6" d="M87.5 333.5c.986 4.47 1.32 9.137 1 14a96.635 96.635 0 0 1-2-6.5c.935-2.381 1.268-4.881 1-7.5Z" opacity=".141"/><path fill="#c7c9ce" d="M223.5 355.5c-1.413 3.005-3.413 5.505-6 7.5-5-.667-10-.667-15 0-6.451-5.852-8.784-13.019-7-21.5 1.641-3.161 4.307-4.828 8-5 4.162 1.279 8.329 1.279 12.5 0 2.774-.195 4.941.805 6.5 3-1.821 1.975-2.821 4.309-3 7 .544 3.416 1.878 6.416 4 9Z"/><path d="M329.5 365.5c1.333.667 1.333.667 0 0Z" opacity=".004"/><path fill="#b26201" d="M88.5 362.5h1v9c-.768-.763-1.268-1.763-1.5-3-4.201 16.662-6.701 33.662-7.5 51h-7a875.29 875.29 0 0 1 12-50 32.517 32.517 0 0 1 3-7Z"/><path fill="#919397" d="M327.5 386.5v3a134.215 134.215 0 0 0-1 20c-.838.342-1.172 1.008-1 2a90.583 90.583 0 0 0-9 2.5c-73.005.766-146.005.6-219-.5-1.983-.343-3.317.324-4 2-.722-.418-1.222-1.084-1.5-2a656.054 656.054 0 0 0-2.5-42v-9a64.873 64.873 0 0 1 1-16 3.647 3.647 0 0 0 1.5-1c.9 8.072 2.234 16.072 4 24 .448 1.724 1.281 2.391 2.5 2a7.248 7.248 0 0 1-2 2.5c1.35.772 2.182 1.939 2.5 3.5.415-1.791 1.415-3.124 3-4a21.83 21.83 0 0 1 5 6c1-1.333 2-1.333 3 0 1.044-1.123 1.71-2.456 2-4l1 5c2.409-2.541 5.076-3.874 8-4 .688.832.521 1.498-.5 2a15.69 15.69 0 0 0-4 2c2.807.637 5.473-.029 8-2 1.299.59 2.132 1.59 2.5 3l1-3c.84 2.964 1.84 3.297 3 1l6 6a44.136 44.136 0 0 1 6.5-.5c-.951-.718-1.117-1.551-.5-2.5.667 1.333 1.333 1.333 2 0 .617.949.451 1.782-.5 2.5 1.941.304 3.607 1.137 5 2.5 1.354-1.684 3.021-2.184 5-1.5.227 1.135.56 2.302 1 3.5 1.299-.59 2.132-1.59 2.5-3 .45 2.606 1.95 3.939 4.5 4-.188-1.603.312-2.937 1.5-4 1.154 2.457 2.488 2.457 4 0-.979 1.779-.646 3.445 1 5 1.174-2.171 3.007-3.171 5.5-3v3c3.012-1.186 6.012-1.02 9 .5-1.196.654-1.196 1.154 0 1.5a6.802 6.802 0 0 0 1.5-3l5 8c1.562-5.128 2.895-5.128 4 0a4.934 4.934 0 0 0 .5-3 6.846 6.846 0 0 1 4 1 4.457 4.457 0 0 0 1.5-2c.741 1.141 1.575 1.141 2.5 0-.14 1.069-.14 2.236 0 3.5 1.284.684 2.451.517 3.5-.5 1.079 1.894 2.413 2.227 4 1 1.481 2.564 2.981 2.564 4.5 0-2.248-.824-2.414-1.824-.5-3a38.085 38.085 0 0 1 2.5 7c.811-1.891 2.144-3.224 4-4 1.231 1.151 1.231 2.317 0 3.5a4.457 4.457 0 0 0 2 1.5c2.715-2.13 5.215-1.797 7.5 1 1.944-5.265 3.944-5.265 6 0a6.547 6.547 0 0 1 3-3 6.978 6.978 0 0 0 2.5 3.5c-.951.718-1.117 1.551-.5 2.5 2.071-2.916 3.405-2.582 4 1 .934-4.673 2.434-5.006 4.5-1 2.163-.737 4.496-1.07 7-1 2.683 2.952 5.849 3.952 9.5 3a4.457 4.457 0 0 0 1.5 2 14.972 14.972 0 0 0 3.5-3c1.793 2.306 3.96 2.639 6.5 1 5.29 1.735 10.79 2.735 16.5 3a64.71 64.71 0 0 1 19.5 0c2.511.212 4.678-.455 6.5-2a243.891 243.891 0 0 0 5-23c.671-.752 1.504-1.086 2.5-1Z"/><path fill="#c47008" d="M89.5 371.5a656.054 656.054 0 0 1 2.5 42c.278.916.778 1.582 1.5 2 .647 1.641 1.647 2.974 3 4h-16c.799-17.338 3.299-34.338 7.5-51 .232 1.237.732 2.237 1.5 3Z"/><path fill="#c36f07" d="M327.5 389.5c.876-.131 1.543.202 2 1 3.933 9.248 6.266 18.915 7 29h-15c3.223-2.446 4.89-5.78 5-10a134.215 134.215 0 0 1 1-20Z"/><path fill="#b16102" d="M328.5 373.5c3.953 6.914 7.119 14.248 9.5 22a109.805 109.805 0 0 1 3.5 24h-5c-.734-10.085-3.067-19.752-7-29-.457-.798-1.124-1.131-2-1v-3a46.809 46.809 0 0 1 1-13Z"/><path fill="#904800" d="M328.5 369.5c8.601 15.479 13.601 32.146 15 50h-2a109.805 109.805 0 0 0-3.5-24c-2.381-7.752-5.547-15.086-9.5-22v-4Z"/><path fill="#924a00" d="M85.5 369.5a875.29 875.29 0 0 0-12 50h-1c1.56-17.502 5.894-34.169 13-50Z"/><path fill="#818388" d="M325.5 411.5c-1.779 1.17-2.779 2.836-3 5-74.67.333-149.336 0-224-1a44.043 44.043 0 0 1-1-2 8567.836 8567.836 0 0 0 219 .5 90.583 90.583 0 0 1 9-2.5Z"/><path fill="#6c6e71" d="M326.5 409.5c-.11 4.22-1.777 7.554-5 10h-225c-1.353-1.026-2.353-2.359-3-4 .683-1.676 2.017-2.343 4-2 .304.65.637 1.317 1 2 74.664 1 149.33 1.333 224 1 .221-2.164 1.221-3.83 3-5-.172-.992.162-1.658 1-2Z"/></svg>